<svg id="Calque_1" data-name="Calque 1" xmlns="http://www.w3.org/2000/svg" viewBox="0 0 265.27 277.03"><defs><style>.cls-1{fill:#fff;}</style></defs><path class="cls-1" d="M131.47,262.32h19.86l13.24-126.85H144.71l2.76-26.2h76.11q29.5,0,44.67,12.69t15.17,35.29q0,21-10.89,33.79t-30.2,18.89l21.79,52.39h21.23l-2.76,26.2H242.06L214.2,217.65H185.52l-4.68,44.67h20.4l-2.75,26.2H128.72Zm79.15-69.22q23.16,0,32.13-9.23t9-23.86q0-13.5-8.14-19t-27.71-5.51H194.07L188,193.1Z" transform="translate(-128.72 -109.27)"/><path class="cls-1" d="M391.23,313.22H380.48l-7.17,70.32H350.14l-.82-20.41A62.08,62.08,0,0,1,327.39,380q-13.38,6.35-31,6.35-33.64,0-52.81-23.17t-19.17-59a113.87,113.87,0,0,1,11.45-50.88,92.46,92.46,0,0,1,33.37-37.5q21.92-14.2,52.8-14.21a106.76,106.76,0,0,1,37.23,6.21q16.81,6.21,25.1,15l.82,37-24.54,2.48-2.76-22.61q-14.88-11-38.6-11-27.58,0-45.37,19.44t-17.78,53.64q0,29.24,13.1,43.43t35.16,14.2q20.4,0,31.71-11t13.79-27.85l.82-7.17h-37.5l3-26.2H394Z" transform="translate(-128.72 -109.27)"/></svg>